<svg xmlns="http://www.w3.org/2000/svg" width="80" height="80" viewBox="0 0 80 80">
  <defs>
    <style>
      .cls-1 {
        fill: #e4011c;
      }

      .cls-2 {
        fill: #fff;
      }
    </style>
  </defs>
  <g id="Group_10" data-name="Group 10" transform="translate(-1689 -556)">
    <circle id="Ellipse_1" data-name="Ellipse 1" class="cls-1" cx="40" cy="40" r="40" transform="translate(1689 556)"/>
    <g id="warning" transform="translate(1712.49 581.434)">
      <g id="Group_4" data-name="Group 4">
        <path id="Path_15" data-name="Path 15" class="cls-2" d="M33.312,52.079,21.3,31.959a4.99,4.99,0,0,0-8.58,0L.708,52.079A4.988,4.988,0,0,0,5,59.615H29.022a4.989,4.989,0,0,0,4.29-7.536Zm-16.3-16.41a2,2,0,0,1,2,2v7.982a2,2,0,1,1-3.991,0V37.664h0A2,2,0,0,1,17.01,35.668Zm0,19.955A2.993,2.993,0,1,1,20,52.63,3,3,0,0,1,17.01,55.624Z" transform="translate(0 -29.517)"/>
      </g>
    </g>
  </g>
</svg>
