<svg xmlns="http://www.w3.org/2000/svg" width="124.004" height="121.929" viewBox="0 0 124.004 121.929">
  <defs>
    <style>
      .cls-1 {
        fill: rgba(6,38,77,0.3);
      }
    </style>
  </defs>
  <g id="stayhome_2_" data-name="stayhome (2)" transform="translate(0 -4.053)">
    <g id="XMLID_107_" transform="translate(0 4.053)">
      <g id="Group_79" data-name="Group 79" transform="translate(0 0)">
        <path id="Path_37" data-name="Path 37" class="cls-1" d="M123.969,59.836c.453,5.86-3.67,11.063-9.205,11.618a9.818,9.818,0,0,1-9.842-5.784l-5.024.443-3.793,1.83a2.864,2.864,0,0,0-1.584,2.2A33.452,33.452,0,0,1,92.61,77.53a2.85,2.85,0,0,0,.164,2.426l1.351,2.416,3.757,2.521a6.755,6.755,0,1,1-4.269,7.24L89.45,89.34l-2.621-.32a3.018,3.018,0,0,0-2.452.827,33.911,33.911,0,0,1-7.424,5.364,2.981,2.981,0,0,0-1.564,2.452l-.333,5.308,1.648,6.539a8.392,8.392,0,1,1-8.128,2.088l-1.656-6.577-2.557-4.11a3.744,3.744,0,0,0-3.2-1.753h-.02a33.887,33.887,0,0,1-6.549-.64,3.738,3.738,0,0,0-3.45,1.083l-3.378,3.565-3.782,7.846a6.755,6.755,0,1,1-7.583-3.593l3.805-7.9.747-5.3a2.816,2.816,0,0,0-1.006-2.582,34.01,34.01,0,0,1-7.652-8.77,2.809,2.809,0,0,0-2.383-1.344l-5.292-.051L18.831,83.3a9.449,9.449,0,1,1-2.874-7.89l6.15-1.935,4.491-3.2a2.311,2.311,0,0,0,.957-2.081q-.111-1.355-.113-2.736a33.5,33.5,0,0,1,3.066-14.032,2.3,2.3,0,0,0-.023-1.968l-1.331-2.72-3.611-2.725a6.755,6.755,0,1,1,4.663-6.991l4,3.02,4.033.719a33.783,33.783,0,0,1,10.116-6.482l.947-5.753-1.2-5.942a9.685,9.685,0,0,1-7.181-7.235,9.463,9.463,0,0,1,7.839-11.1c5.418-1.026,10.694,2.278,11.785,7.383A9.187,9.187,0,0,1,56.4,21.26l1.129,5.6L60.3,31.287a.991.991,0,0,0,.839.463h.005A33.475,33.475,0,0,1,78.51,36.582a.978.978,0,0,0,.916.051l4.34-2.011,5.067-5.482a6.754,6.754,0,1,1,6.16,5.7l-5.067,5.482L88.28,44.745a.979.979,0,0,0,.128.916,33.528,33.528,0,0,1,4.693,9.08,2.878,2.878,0,0,0,1.937,1.86l4.12,1.154,5.354-.473a10.348,10.348,0,0,1,8.616-7.053C118.664,49.674,123.519,53.976,123.969,59.836Z" transform="translate(0 -4.053)"/>
      </g>
    </g>
    <g id="XMLID_8_" transform="translate(36.19 40.497)">
      <g id="Group_80" data-name="Group 80">
        <circle id="Ellipse_7" data-name="Ellipse 7" class="cls-1" cx="24.956" cy="24.956" r="24.956"/>
      </g>
    </g>
    <path id="Path_38" data-name="Path 38" class="cls-1" d="M149.023,171.419a24.962,24.962,0,0,1,21.153-24.668,24.956,24.956,0,1,0,0,49.337A24.963,24.963,0,0,1,149.023,171.419Z" transform="translate(-105.226 -105.966)"/>
    <g id="Group_81" data-name="Group 81" transform="translate(12.049 5.869)">
      <circle id="Ellipse_8" data-name="Ellipse 8" class="cls-1" cx="7.107" cy="7.107" r="7.107"/>
      <circle id="Ellipse_9" data-name="Ellipse 9" class="cls-1" cx="4.694" cy="4.694" r="4.694" transform="translate(0.47 96.092)"/>
      <circle id="Ellipse_10" data-name="Ellipse 10" class="cls-1" cx="6.914" cy="6.914" r="6.914" transform="translate(84.438 101.584)"/>
      <circle id="Ellipse_11" data-name="Ellipse 11" class="cls-1" cx="6.446" cy="6.446" r="6.446" transform="translate(34.991 46.256)"/>
      <circle id="Ellipse_12" data-name="Ellipse 12" class="cls-1" cx="4.388" cy="4.388" r="4.388" transform="translate(42.224 68.336)"/>
      <circle id="Ellipse_13" data-name="Ellipse 13" class="cls-1" cx="3.684" cy="3.684" r="3.684" transform="translate(56.704 55.9)"/>
    </g>
  </g>
</svg>
