<svg xmlns="http://www.w3.org/2000/svg" width="80" height="80" viewBox="0 0 80 80">
  <defs>
    <style>
      .cls-1 {
        fill: #06264d;
      }

      .cls-2 {
        fill: #fff;
      }
    </style>
  </defs>
  <g id="Group_57" data-name="Group 57" transform="translate(-1690 -556)">
    <circle id="Ellipse_1" data-name="Ellipse 1" class="cls-1" cx="40" cy="40" r="40" transform="translate(1690 556)"/>
    <g id="fist" transform="translate(1708.901 575.873)">
      <path id="Path_1" data-name="Path 1" class="cls-2" d="M445.3,242.344h-3.125a1.172,1.172,0,0,1,0-2.344H445.3a1.172,1.172,0,0,1,0,2.344Z" transform="translate(-405.622 -221.248)"/>
      <path id="Path_2" data-name="Path 2" class="cls-2" d="M5.3,242.344H2.172a1.172,1.172,0,1,1,0-2.344H5.3a1.172,1.172,0,1,1,0,2.344Z" transform="translate(0 -221.248)"/>
      <path id="Path_3" data-name="Path 3" class="cls-2" d="M415.376,123.9a1.172,1.172,0,0,1-.587-2.187l2.707-1.563a1.172,1.172,0,1,1,1.172,2.03l-2.707,1.563A1.167,1.167,0,0,1,415.376,123.9Z" transform="translate(-380.918 -110.621)"/>
      <path id="Path_4" data-name="Path 4" class="cls-2" d="M342.168,37.2a1.172,1.172,0,0,1-1.014-1.758l1.563-2.707a1.172,1.172,0,0,1,2.03,1.172l-1.563,2.707A1.172,1.172,0,0,1,342.168,37.2Z" transform="translate(-313.432 -29.639)"/>
      <path id="Path_5" data-name="Path 5" class="cls-2" d="M242.172,5.469A1.172,1.172,0,0,1,241,4.3V1.172a1.172,1.172,0,0,1,2.344,0V4.3A1.172,1.172,0,0,1,242.172,5.469Z" transform="translate(-221.248)"/>
      <path id="Path_6" data-name="Path 6" class="cls-2" d="M123.733,37.2a1.171,1.171,0,0,1-1.016-.586l-1.563-2.707a1.172,1.172,0,1,1,2.03-1.172l1.563,2.707a1.172,1.172,0,0,1-1.014,1.758Z" transform="translate(-110.622 -29.639)"/>
      <path id="Path_7" data-name="Path 7" class="cls-2" d="M37.029,123.9a1.166,1.166,0,0,1-.585-.157l-2.707-1.563a1.172,1.172,0,1,1,1.172-2.03l2.707,1.563a1.172,1.172,0,0,1-.587,2.187Z" transform="translate(-29.639 -110.621)"/>
      <path id="Path_8" data-name="Path 8" class="cls-2" d="M445.3,242.344h-3.125a1.172,1.172,0,0,1,0-2.344H445.3a1.172,1.172,0,0,1,0,2.344Z" transform="translate(-405.622 -221.248)"/>
      <path id="Path_9" data-name="Path 9" class="cls-2" d="M415.376,123.9a1.172,1.172,0,0,1-.587-2.187l2.707-1.563a1.172,1.172,0,1,1,1.172,2.03l-2.707,1.563A1.167,1.167,0,0,1,415.376,123.9Z" transform="translate(-380.918 -110.621)"/>
      <path id="Path_10" data-name="Path 10" class="cls-2" d="M342.168,37.2a1.172,1.172,0,0,1-1.014-1.758l1.563-2.707a1.172,1.172,0,0,1,2.03,1.172l-1.563,2.707A1.172,1.172,0,0,1,342.168,37.2Z" transform="translate(-313.432 -29.639)"/>
      <path id="Path_11" data-name="Path 11" class="cls-2" d="M242.172,5.469A1.172,1.172,0,0,1,241,4.3V1.172a1.172,1.172,0,0,1,2.344,0V4.3A1.172,1.172,0,0,1,242.172,5.469Z" transform="translate(-221.248)"/>
      <path id="Path_12" data-name="Path 12" class="cls-2" d="M123.733,37.2a1.171,1.171,0,0,1-1.016-.586l-1.563-2.707a1.172,1.172,0,1,1,2.03-1.172l1.563,2.707a1.172,1.172,0,0,1-1.014,1.758Z" transform="translate(-110.622 -29.639)"/>
      <path id="Path_13" data-name="Path 13" class="cls-2" d="M103.637,114.064a2.637,2.637,0,0,0,2.637-2.637v.781a2.637,2.637,0,0,0,2.523,2.634,5,5,0,0,1,4.235-7.654H122.1V104.2a2.637,2.637,0,1,0-5.274,0v-1.563a2.637,2.637,0,0,0-5.274,0V104.2a2.637,2.637,0,1,0-5.274,0v1.563a2.637,2.637,0,0,0-5.274,0v5.665A2.637,2.637,0,0,0,103.637,114.064Z" transform="translate(-92.187 -92.187)"/>
      <path id="Path_14" data-name="Path 14" class="cls-2" d="M121.705,222h-8.673a2.657,2.657,0,1,0,0,5.313h6.527a4.1,4.1,0,0,0-2.933,4.3,1.172,1.172,0,0,1-2.344,0,8.324,8.324,0,0,1,.22-1.953h-1.47a4.969,4.969,0,0,1-2.064-.447,4.962,4.962,0,0,1-5.309-.765,4.964,4.964,0,0,1-4.66-.327v5.468a6.783,6.783,0,0,0,3.125,5.737v4.164a1.172,1.172,0,0,0,1.172,1.172h15.627a1.172,1.172,0,0,0,1.172-1.172v-4.164h0a6.783,6.783,0,0,0,3.125-5.736v-8.069A3.516,3.516,0,0,0,121.705,222Z" transform="translate(-92.187 -204.655)"/>
    </g>
  </g>
</svg>
