<svg xmlns="http://www.w3.org/2000/svg" width="1066.663" height="650" viewBox="0 0 1066.663 650">
  <defs>
    <style>
      .cls-1 {
        fill: rgba(0,170,99,0.7);
      }
    </style>
  </defs>
  <path id="Exclusion_1" data-name="Exclusion 1" class="cls-1" d="M300,650a199.165,199.165,0,0,1-126.549-45.12c73.978,10.643,146.058,19.029,214.239,24.922a198.885,198.885,0,0,1-41.978,14.952A201.062,201.062,0,0,1,300,650Zm304.445-10c-34.276,0-70.89-.944-108.827-2.807-34.441-1.691-70.753-4.178-107.928-7.391a200.672,200.672,0,0,0,57.962-42.739A201.993,201.993,0,0,0,480,590c110.281,0,200-89.72,200-200s-89.72-200-200-200a201.34,201.34,0,0,0-41.85,4.386,199.007,199.007,0,0,0-73.73,32.373,201.5,201.5,0,0,0-30.072,26.18A201.985,201.985,0,0,0,300,250c-110.28,0-200,89.719-200,200a199.393,199.393,0,0,0,73.451,154.88c-53.483-7.694-97.8-15.137-125.551-20.026C17.834,579.559.175,576.035,0,576V0H960l.012.02c.406.735,4.132,7.511,9.832,18.824C975.4,29.875,984.062,47.66,993.75,69.75c10.887,24.822,20.822,49.9,29.531,74.531A888.069,888.069,0,0,1,1050,234c17.418,73.157,21.2,137.5,11.25,191.25a260.073,260.073,0,0,1-12.129,44.121,224.683,224.683,0,0,1-9.031,20.782,209.743,209.743,0,0,1-11.184,19.753A200.537,200.537,0,0,1,999.551,545.8a209.912,209.912,0,0,1-18.435,15.877A226.932,226.932,0,0,1,960,576a280.477,280.477,0,0,1-32.412,16.53A387.281,387.281,0,0,1,890.7,606.249c-12.729,4.043-26.473,7.775-40.852,11.093-13.928,3.214-28.83,6.127-44.29,8.656-14.955,2.447-30.837,4.6-47.206,6.406-15.806,1.742-32.494,3.2-49.6,4.344C676.4,638.906,641.306,640,604.445,640ZM445.651,587.062a199.391,199.391,0,0,1-93.762-43.471A200.968,200.968,0,0,1,307.6,491.452a199.852,199.852,0,0,1,26.745-238.514,199.393,199.393,0,0,1,93.763,43.471A200.958,200.958,0,0,1,472.4,348.548a199.852,199.852,0,0,1-26.745,238.514Z" transform="translate(0 0)"/>
</svg>
