<svg xmlns="http://www.w3.org/2000/svg" width="512.666" height="512.001" viewBox="0 0 512.666 512.001">
  <defs>
    <style>
      .cls-1 {
        fill: #fff;
      }

      .cls-2 {
        fill: #ff5c7d;
      }

      .cls-3 {
        fill: #ffd88e;
      }

      .cls-4 {
        fill: #f2b394;
      }

      .cls-5 {
        fill: #8690af;
      }

      .cls-6 {
        fill: #a0c8ff;
      }
    </style>
  </defs>
  <g id="XMLID_27_" transform="translate(0 -0.333)">
    <path id="XMLID_1587_" class="cls-1" d="M64.666,284.333v218h384v-218L256.793,124Z"/>
    <g id="XMLID_1944_">
      <path id="XMLID_1945_" class="cls-2" d="M463.649,292.943,256.666,119.6,49.684,292.943,10.666,246.354l246-206.021,246,206.021Z"/>
    </g>
    <path id="XMLID_2040_" class="cls-3" d="M219.566,502.333h157.1V464.57a56.423,56.423,0,0,0-56.423-56.423H193.09a56.423,56.423,0,0,0-56.423,56.423v37.763h82.9Z"/>
    <path id="XMLID_2039_" class="cls-4" d="M306.539,295.266v37.883c0,32.308-22.329,54.637-49.873,54.637a49.873,49.873,0,0,1-49.873-49.873V295.266Z"/>
    <path id="XMLID_2038_" class="cls-4" d="M281.6,382.379V409.7a24.937,24.937,0,0,1-49.873,0V382.379Z"/>
    <path id="XMLID_2184_" class="cls-5" d="M248.464,243.058H317v28.613a41.671,41.671,0,0,1-41.671,41.671H206.794V284.729a41.67,41.67,0,0,1,41.67-41.671Z"/>
    <path id="XMLID_2605_" class="cls-6" d="M111.862,240.957A146.189,146.189,0,0,1,10,101.65V40.625L111.862,10.333,213.724,40.625V101.65A146.192,146.192,0,0,1,111.862,240.957Z"/>
    <g id="XMLID_364_">
      <path id="XMLID_365_" d="M99.338,150.008a10,10,0,0,0,14.142,0l34.584-34.584a10,10,0,0,0-14.143-14.143l-27.513,27.513L90.064,112.45a10,10,0,0,0-14.143,14.143Z"/>
      <path id="XMLID_366_" d="M512.627,245.473a10,10,0,0,0-3.54-6.786l-83.5-69.933a10,10,0,1,0-12.842,15.333L488.579,247.6,462.4,278.856,263.087,111.932a10,10,0,0,0-12.842,0l-30.68,25.694a156.793,156.793,0,0,0,4.159-35.976V80.966l32.942-27.589,87.086,72.933a10,10,0,1,0,12.842-15.333l-93.507-78.31a10,10,0,0,0-12.842,0L223.724,54.879V40.625a10,10,0,0,0-7.149-9.585L114.712.748a9.986,9.986,0,0,0-5.7,0L7.149,31.04A10,10,0,0,0,0,40.625V101.65a155.191,155.191,0,0,0,30.109,92.19A158.484,158.484,0,0,0,41.4,207.572L4.245,238.688A10,10,0,0,0,3,252.775l39.018,46.589A9.995,9.995,0,0,0,48.8,302.9q.441.039.881.039a10,10,0,0,0,4.982-1.329v200.72a10,10,0,0,0,10,10h384a10,10,0,0,0,10-10V301.614a10,10,0,0,0,12.65-2.25l39.018-46.589a10.012,10.012,0,0,0,2.293-7.3ZM20,101.65V48.084l91.861-27.318,91.862,27.318V101.65a135.691,135.691,0,0,1-91.862,128.775A135.7,135.7,0,0,1,20,101.65ZM50.93,278.856,24.753,247.6l31.2-26.127a154.606,154.606,0,0,0,36.373,22.715ZM366.666,492.333h-220V464.57a46.475,46.475,0,0,1,46.424-46.423h29.677a34.934,34.934,0,0,0,67.8,0h29.678a46.475,46.475,0,0,1,46.423,46.423ZM275.328,323.342a51.356,51.356,0,0,0,21.211-4.573V333.15c0,25.864-16.77,44.637-39.873,44.637a39.918,39.918,0,0,1-39.873-39.873V323.342Zm-58.535-20V284.729a31.707,31.707,0,0,1,31.671-31.671H307v18.613a31.707,31.707,0,0,1-31.671,31.671Zm54.81,92.571v13.792a14.937,14.937,0,0,1-29.873,0V395.9a60.291,60.291,0,0,0,29.873.013Zm167.063,96.42h-52V464.57a66.5,66.5,0,0,0-66.423-66.423H291.6V386.3c15.293-11.473,24.937-30.609,24.937-53.151V302.783A51.385,51.385,0,0,0,327,271.671V243.058a10,10,0,0,0-10-10H248.464a51.73,51.73,0,0,0-51.671,51.671v53.185a59.819,59.819,0,0,0,24.937,48.577v11.656H193.09a66.5,66.5,0,0,0-66.424,66.423v27.763h-52V285.064l42.012-35.184a155.146,155.146,0,0,0,76.937-56.04,158.087,158.087,0,0,0,11.316-17.87l51.735-43.328,182,152.423Z"/>
      <path id="XMLID_439_" d="M384.663,157.533a10,10,0,1,0-7.07-2.93A10.072,10.072,0,0,0,384.663,157.533Z"/>
    </g>
  </g>
</svg>
