<svg xmlns="http://www.w3.org/2000/svg" width="80" height="80" viewBox="0 0 80 80">
  <defs>
    <style>
      .cls-1 {
        fill: #00aa63;
      }

      .cls-2 {
        fill: #fff;
      }
    </style>
  </defs>
  <g id="Group_58" data-name="Group 58" transform="translate(-1690 -562)">
    <circle id="Ellipse_1" data-name="Ellipse 1" class="cls-1" cx="40" cy="40" r="40" transform="translate(1690 562)"/>
    <g id="surface1" transform="translate(1715.48 584.953)">
      <path id="Path_30" data-name="Path 30" class="cls-2" d="M126.938,158.457a6.5,6.5,0,1,0,6.5,6.5A6.5,6.5,0,0,0,126.938,158.457Zm3.857,5.273-4.654,4.654a1,1,0,0,1-1.415,0l-1.779-1.779a1,1,0,0,1,1.415-1.415l1.071,1.071,3.947-3.947a1,1,0,1,1,1.415,1.415Zm0,0" transform="translate(-112.42 -147.905)"/>
      <path id="Path_31" data-name="Path 31" class="cls-2" d="M29,9.25V9.224c-.015-.328-.025-.674-.031-1.06a3.614,3.614,0,0,0-3.4-3.54A14.023,14.023,0,0,1,16.023.6L16,.58a2.182,2.182,0,0,0-2.966,0L13.013.6A14.024,14.024,0,0,1,3.469,4.624a3.614,3.614,0,0,0-3.4,3.54c-.006.383-.016.729-.031,1.059l0,.062c-.076,4-.171,8.973,1.493,13.488A17.17,17.17,0,0,0,5.647,29.19a21.549,21.549,0,0,0,8.061,4.768,2.5,2.5,0,0,0,.33.09,2.44,2.44,0,0,0,.959,0,2.506,2.506,0,0,0,.332-.091,21.563,21.563,0,0,0,8.052-4.771A17.194,17.194,0,0,0,27.5,22.769C29.172,18.24,29.077,13.255,29,9.25ZM14.518,25.545a8.5,8.5,0,1,1,8.5-8.5A8.507,8.507,0,0,1,14.518,25.545Zm0,0" transform="translate(0)"/>
    </g>
  </g>
</svg>
