<svg xmlns="http://www.w3.org/2000/svg" width="67.996" height="66.858" viewBox="0 0 67.996 66.858">
  <defs>
    <style>
      .cls-1 {
        fill: rgba(6,38,77,0.3);
      }
    </style>
  </defs>
  <g id="stayhome_2_" data-name="stayhome (2)" transform="translate(0 -4.053)">
    <g id="XMLID_107_" transform="translate(0 4.053)">
      <g id="Group_79" data-name="Group 79" transform="translate(0 0)">
        <path id="Path_37" data-name="Path 37" class="cls-1" d="M67.977,34.641a5.847,5.847,0,0,1-5.047,6.371,5.383,5.383,0,0,1-5.4-3.171l-2.755.243-2.08,1a1.57,1.57,0,0,0-.869,1.205,18.343,18.343,0,0,1-1.048,4.051,1.563,1.563,0,0,0,.09,1.33L51.612,47l2.06,1.382a3.7,3.7,0,1,1-2.341,3.97l-2.283-1.531-1.437-.175a1.655,1.655,0,0,0-1.344.453A18.6,18.6,0,0,1,42.2,54.038a1.635,1.635,0,0,0-.857,1.344l-.182,2.91.9,3.585A4.6,4.6,0,1,1,37.6,63.023L36.7,59.417l-1.4-2.254A2.053,2.053,0,0,0,33.54,56.2h-.011a18.581,18.581,0,0,1-3.591-.351,2.05,2.05,0,0,0-1.892.594L26.194,58.4,24.12,62.7a3.7,3.7,0,1,1-4.158-1.97l2.087-4.33.41-2.906a1.544,1.544,0,0,0-.551-1.416,18.649,18.649,0,0,1-4.2-4.809,1.54,1.54,0,0,0-1.306-.737l-2.9-.028-3.177,1A5.181,5.181,0,1,1,8.75,43.178l3.372-1.061,2.463-1.755a1.267,1.267,0,0,0,.525-1.141q-.061-.743-.062-1.5a18.368,18.368,0,0,1,1.681-7.694,1.263,1.263,0,0,0-.013-1.079l-.73-1.492-1.98-1.494a3.7,3.7,0,1,1,2.557-3.834l2.195,1.656,2.212.394a18.525,18.525,0,0,1,5.547-3.554l.519-3.155-.655-3.258a5.311,5.311,0,0,1-3.938-3.967,5.189,5.189,0,0,1,4.3-6.089A5.486,5.486,0,0,1,33.2,8.2a5.037,5.037,0,0,1-2.276,5.285l.619,3.073,1.52,2.425a.543.543,0,0,0,.46.254h0A18.356,18.356,0,0,1,43.05,21.89a.536.536,0,0,0,.5.028l2.38-1.1,2.778-3.006a3.7,3.7,0,1,1,3.378,3.124L49.31,23.938l-.9,2.428a.537.537,0,0,0,.07.5,18.384,18.384,0,0,1,2.574,4.979,1.578,1.578,0,0,0,1.062,1.02l2.259.633,2.936-.26a5.674,5.674,0,0,1,4.725-3.867A5.53,5.53,0,0,1,67.977,34.641Z" transform="translate(0 -4.053)"/>
      </g>
    </g>
    <g id="XMLID_8_" transform="translate(19.844 24.037)">
      <g id="Group_80" data-name="Group 80">
        <circle id="Ellipse_7" data-name="Ellipse 7" class="cls-1" cx="13.684" cy="13.684" r="13.684"/>
      </g>
    </g>
    <path id="Path_38" data-name="Path 38" class="cls-1" d="M145.587,160.147a13.688,13.688,0,0,1,11.6-13.527,13.685,13.685,0,1,0,0,27.053A13.688,13.688,0,0,1,145.587,160.147Z" transform="translate(-121.572 -122.426)"/>
    <g id="Group_81" data-name="Group 81" transform="translate(6.607 5.049)">
      <circle id="Ellipse_8" data-name="Ellipse 8" class="cls-1" cx="3.897" cy="3.897" r="3.897"/>
      <circle id="Ellipse_9" data-name="Ellipse 9" class="cls-1" cx="2.574" cy="2.574" r="2.574" transform="translate(0.258 52.691)"/>
      <circle id="Ellipse_10" data-name="Ellipse 10" class="cls-1" cx="3.791" cy="3.791" r="3.791" transform="translate(46.3 55.702)"/>
      <circle id="Ellipse_11" data-name="Ellipse 11" class="cls-1" cx="3.535" cy="3.535" r="3.535" transform="translate(19.187 25.364)"/>
      <circle id="Ellipse_12" data-name="Ellipse 12" class="cls-1" cx="2.406" cy="2.406" r="2.406" transform="translate(23.153 37.471)"/>
      <circle id="Ellipse_13" data-name="Ellipse 13" class="cls-1" cx="2.02" cy="2.02" r="2.02" transform="translate(31.093 30.652)"/>
    </g>
  </g>
</svg>
